<?xml version="1.0" encoding="UTF-8"?>
<svg width="23px" height="19px" viewBox="0 0 23 19" version="1.1" xmlns="http://www.w3.org/2000/svg" xmlns:xlink="http://www.w3.org/1999/xlink">
    <title>Group 4@2x</title>
    <g id="EventSuite" stroke="none" stroke-width="1" fill="none" fill-rule="evenodd">
        <g id="Group-4" transform="translate(0.000000, -0.000000)" fill="#FFFFFF">
            <ellipse id="Oval" fill-rule="nonzero" cx="2.8125" cy="17.5" rx="2.8125" ry="1.25"></ellipse>
            <ellipse id="Oval-Copy-20" fill-rule="nonzero" cx="19.6875" cy="17.5" rx="2.8125" ry="1.25"></ellipse>
            <path d="M19.1263856,5 L20.2486144,5 C20.5170438,5 20.7375776,5.21195607 20.7482212,5.48017433 L21.2175751,17.3078918 C21.2287373,17.5838085 21.0141254,17.8165449 20.7382094,17.8277237 C20.677596,17.8301795 20.6170417,17.8215845 20.5595398,17.8022571 C20.2688599,17.704919 19.9781799,17.65625 19.6875,17.65625 C19.3968201,17.65625 19.1061401,17.704919 18.8154602,17.8022571 C18.5535868,17.8898753 18.2703229,17.7485035 18.1828064,17.4865961 C18.1635808,17.4290602 18.1549858,17.3685059 18.1574249,17.3078918 L18.6267788,5.48017433 C18.6374224,5.21195607 18.8579562,5 19.1263856,5 Z" id="Rectangle-Copy-3-Copy" fill-rule="nonzero" transform="translate(19.687500, 11.562500) rotate(180.000000) translate(-19.687500, -11.562500) "></path>
            <path d="M2.25138558,5 L3.37361442,5 C3.64204378,5 3.86257762,5.21195607 3.8732212,5.48017433 L4.34257507,17.3078918 C4.35373725,17.5838085 4.13912537,17.8165449 3.86320936,17.8277237 C3.80259601,17.8301795 3.7420417,17.8215845 3.68453979,17.8022571 C3.39385986,17.704919 3.10317993,17.65625 2.8125,17.65625 C2.52182007,17.65625 2.23114014,17.704919 1.94046021,17.8022571 C1.67858683,17.8898753 1.39532285,17.7485035 1.30780642,17.4865961 C1.28858077,17.4290602 1.27998581,17.3685059 1.28242493,17.3078918 L1.7517788,5.48017433 C1.76242238,5.21195607 1.98295622,5 2.25138558,5 Z" id="Rectangle-Copy-3-Copy-2" fill-rule="nonzero" transform="translate(2.812500, 11.562500) rotate(180.000000) translate(-2.812500, -11.562500) "></path>
            <ellipse id="Oval" cx="2.8125" cy="2.5" rx="2.1875" ry="2.5"></ellipse>
            <ellipse id="Oval-Copy-21" cx="19.6875" cy="2.5" rx="2.1875" ry="2.5"></ellipse>
            <path d="M4.375,3.125 C6.77083333,4.01785714 9.16666667,4.46428571 11.5625,4.46428571 C13.9583333,4.46428571 16.3541667,4.01785714 18.75,3.125 L18.75,4.01785714 C16.3554608,5.50595238 13.9602746,6.25 11.5644412,6.25 C9.16860789,6.25 6.77212748,5.50595238 4.375,4.01785714 L4.375,3.125 Z" id="Rectangle"></path>
            <path d="M13.9322747,3.4124375 C13.037649,3.63747917 12.1429315,3.75 11.2481222,3.75 C10.3533128,3.75 9.45951777,3.63747917 8.56673702,3.4124375 C8.31591707,3.34939021 8.15496105,3.10521573 8.19555301,2.84979894 L8.28390268,2.29620126 C8.32262806,2.0535486 8.53193103,1.875 8.77765439,1.875 L13.7197047,1.875 C13.9649391,1.875 14.1739773,2.05285671 14.2132512,2.29492581 L14.3030507,2.84841526 C14.3443819,3.10415646 14.1834641,3.34906741 13.9322747,3.4124375 Z" id="Path-6"></path>
            <path d="M15.0168657,6.38025129 C13.8650635,6.64608129 12.7136082,6.77968322 11.5625,6.78105706 C10.4113918,6.78243091 9.26072877,6.65157656 8.11051096,6.38849401 C7.84139844,6.32658174 7.57289846,6.49430841 7.51074337,6.76336483 C7.50783103,6.77597176 7.50540914,6.78868699 7.50365817,6.80150814 L6.33801353,14.4244219 C6.29627288,14.6973913 6.48372087,14.9525143 6.75669034,14.9942549 C6.7817014,14.9980795 6.80696669,15 6.83226847,15 L16.2930344,15 C16.5691768,15 16.7930344,14.7761424 16.7930344,14.5 C16.7930344,14.4747841 16.7911269,14.4496042 16.7873281,14.4246761 L15.6242996,6.79260254 C15.5830317,6.51956119 15.3281844,6.33173861 15.0551539,6.37307821 C15.0423127,6.3750225 15.0295522,6.37746637 15.0168657,6.38025129 Z" id="Path-7"></path>
        </g>
    </g>
</svg>